<?xml version="1.0" encoding="utf-8"?>
<svg viewBox="0 0 127 127" xmlns="http://www.w3.org/2000/svg">
  <defs>
    <pattern id="pattern-0" x="0" y="0" width="25" height="25" patternUnits="userSpaceOnUse" viewBox="0 0 100 100">
      <rect x="0" y="0" width="50" height="100" style="fill: black;"/>
    </pattern>
  </defs>
  <path style="fill: none; stroke: rgb(91, 146, 64); stroke-width: 4px; stroke-linecap: round;" d="M 38.351 74.911 C 27.299 75.092 25.888 80.01 36.49 82.366 C 35.134 83.211 78.875 88.488 92.211 80.182"/>
  <path style="fill: none; stroke: rgb(91, 146, 64); stroke-width: 4px; stroke-linecap: round;" d="M 29.747 84.841 C 30.212 93.311 46.961 105.136 53.341 106.213 C 62.086 106.992 79.009 109.625 82.202 105.276 C 88.769 102.286 93.333 91.162 93.999 88.464"/>
  <path style="fill: none; stroke: rgb(91, 146, 64); stroke-linejoin: round; stroke-width: 4px; stroke-linecap: round;" d="M 40.492 107.2 C 31.84 107.649 25.37 114.806 37.551 115.123 C 42.733 118.233 78.827 116.333 81.342 115.03 C 85.312 114.763 94.052 112.961 99.129 110.235"/>
  <path d="M 65.104 35.495 L 65.104 35.495" style="stroke: rgb(0, 0, 0); fill: rgb(216, 216, 216); stroke-linecap: round;"/>
  <path d="M 49.474 6.629 C 49.853 6.534 50.09 6.676 50.185 7.056 C 49.711 8.857 49.569 11.038 49.758 13.598 C 49.284 13.977 49.047 14.593 49.047 15.446 C 49.237 17.817 48.953 19.808 48.194 21.42 C 48.004 23.316 47.957 25.449 48.052 27.819 C 48.241 29.526 48.668 31.09 49.332 32.512 C 49.427 37.063 50.09 41.093 51.323 44.601 C 51.607 46.213 51.702 48.014 51.607 50.005 C 50.754 53.134 49.664 56.073 48.336 58.823 C 47.862 60.624 47.72 62.757 47.91 65.222 C 48.384 68.541 49.19 71.622 50.327 74.467 C 50.232 75.225 50.28 75.936 50.47 76.6 C 50.47 76.884 50.375 77.074 50.185 77.169 C 49.901 77.169 49.758 77.216 49.758 77.311 C 49.474 77.216 49.284 77.121 49.19 77.026 C 49.284 75.889 49.237 74.941 49.047 74.182 C 48.099 71.907 47.388 69.394 46.914 66.645 C 46.63 64.938 46.582 63.089 46.772 61.098 C 47.151 60.245 47.341 59.202 47.341 57.969 C 48.668 55.409 49.711 52.66 50.47 49.721 L 50.47 47.73 C 50.185 46.971 50.09 46.023 50.185 44.885 C 49.142 42.041 48.478 38.912 48.194 35.499 L 48.194 32.797 C 47.341 32.038 46.962 30.853 47.056 29.241 C 46.772 27.25 46.724 25.07 46.914 22.699 C 46.914 20.708 47.246 19.097 47.91 17.864 L 47.91 15.162 C 48.384 14.688 48.621 14.024 48.621 13.171 C 48.81 11.654 48.858 10.042 48.763 8.336 C 48.763 7.482 49 6.913 49.474 6.629 Z" style="stroke-linejoin: round; fill: rgb(255, 213, 83); stroke: rgb(255, 220, 115); stroke-width: 4px; stroke-linecap: round;"/>
  <path d="M 74.779 6.158 C 75.158 6.158 75.395 6.301 75.49 6.585 C 74.637 7.723 74.21 9.335 74.21 11.42 C 74.779 12.274 74.969 13.601 74.779 15.403 C 73.736 17.204 73.452 19.859 73.926 23.367 C 75.063 25.168 75.964 27.301 76.628 29.766 C 76.628 29.766 77.623 37.541 77.623 41.997 C 77.244 45.505 76.343 48.587 74.921 51.241 C 74.352 55.223 74.115 59.585 74.21 64.325 C 74.305 67.549 75.158 70.109 76.77 72.005 C 77.339 73.427 77.623 75.181 77.623 77.267 C 77.528 77.457 77.339 77.551 77.054 77.551 C 76.96 77.457 76.817 77.409 76.628 77.409 C 76.248 73.427 75.158 70.109 73.357 67.454 C 72.977 64.894 72.883 62.05 73.072 58.921 C 73.831 56.74 74.068 54.086 73.783 50.957 C 74.447 48.397 75.253 46.074 76.201 43.988 C 76.486 42.661 76.58 41.239 76.486 39.722 C 75.727 36.877 75.395 33.654 75.49 30.051 C 74.352 28.155 73.452 26.069 72.788 23.793 L 72.788 17.394 C 73.452 16.54 73.736 15.355 73.641 13.838 C 73.167 12.795 72.977 11.515 73.072 9.998 C 73.167 8.292 73.736 7.012 74.779 6.158 Z" style="stroke-linejoin: round; stroke: rgb(98, 210, 220); fill: rgb(69, 201, 213); stroke-width: 4px; stroke-linecap: round;"/>
  <path d="M 60.203 6.53 C 60.487 6.53 60.677 6.672 60.772 6.956 C 61.53 8.568 61.72 10.796 61.341 13.641 C 61.91 14.968 62.289 16.532 62.478 18.334 L 62.478 21.605 C 61.815 25.018 61.53 28.811 61.625 32.982 C 60.582 35.163 60.156 37.96 60.345 41.373 C 60.819 44.976 61.91 48.057 63.616 50.617 C 64.185 54.694 64.517 59.055 64.612 63.701 C 64.327 63.891 64.185 64.27 64.185 64.839 C 64.09 68.821 63.664 72.519 62.905 75.932 C 63.095 75.932 63.142 76.074 63.047 76.358 C 62.953 76.358 62.905 76.453 62.905 76.643 C 62.621 76.548 62.478 76.596 62.478 76.785 C 62.289 76.596 62.052 76.501 61.767 76.501 C 62.526 72.898 62.953 68.916 63.047 64.554 C 63.332 64.27 63.474 63.843 63.474 63.274 C 62.905 59.292 62.573 55.168 62.478 50.902 C 61.151 48.626 60.108 46.066 59.35 43.222 C 59.16 41.515 59.113 39.666 59.207 37.675 C 60.914 32.366 61.625 26.061 61.341 18.76 C 61.151 16.959 60.772 15.347 60.203 13.925 C 60.582 10.986 60.393 8.663 59.634 6.956 C 59.729 6.767 59.919 6.625 60.203 6.53 Z" style="stroke-linejoin: round; stroke: rgb(255, 80, 80); fill: rgb(196, 81, 80); stroke-width: 4px; stroke-linecap: round;"/>
</svg>